<?xml version="1.0" encoding="UTF-8"?>
<svg viewBox="0 0 780 439" version="1.1" xmlns="http://www.w3.org/2000/svg" xmlns:xlink="http://www.w3.org/1999/xlink">
    <!-- Generator: Sketch 52.3 (67297) - http://www.bohemiancoding.com/sketch -->
    <title>Group 4</title>
    <desc>Created with Sketch.</desc>
    <defs>
        <linearGradient x1="-83.2348064%" y1="106.401351%" x2="140.023112%" y2="-13.2029998%" id="linearGradient-1">
            <stop stop-color="#F8FAFC" offset="0%"></stop>
            <stop stop-color="#F8FAFC" offset="21.7972142%"></stop>
            <stop stop-color="#BBDBF5" offset="100%"></stop>
            <stop stop-color="#B9DAF5" offset="100%"></stop>
        </linearGradient>
    </defs>
    <g id="Page-1" stroke="none" stroke-width="1" fill="none" fill-rule="evenodd">
        <g id="02-post" transform="translate(-250.000000, -150.000000)">
            <g id="Group-4" transform="translate(250.000000, 150.000000)">
                <polygon id="Rectangle" fill="#F1F5F8" points="0 0 780 0 780 439 0 439"></polygon>
                <g id="Group-3" transform="translate(255.000000, 61.000000)">
                    <path d="M134.915625,34.3086414 L24.96875,89.0971377 L24.96875,226.072311 L134.915625,280.860807 L244.8625,226.072311 L244.8625,89.0971377 L134.915625,34.3086414 Z" id="Rectangle-3-Copy" stroke="#B9DAF5"></path>
                    <polygon id="Rectangle-3-Copy-2" fill="url(#linearGradient-1)" points="109.51875 157.219748 109.51875 295.034744 0 239.908746 0 102.09375"></polygon>
                    <path d="M134.915625,34.3089539 L25.5872893,88.9422554 L134.915625,143.575557 L244.243961,88.9422554 L134.915625,34.3089539 Z" id="Rectangle-3" stroke="#B9DAF5"></path>
                    <path d="M135.316406,143.9013 L135.316406,280.258637" id="Line" stroke="#B9DAF5" stroke-linecap="square" fill-rule="nonzero"></path>
                    <path d="M24.6445312,57.5475769 L24.6445312,86.8856529" id="Line-2-Copy-2" stroke="#C7CFDA" stroke-linecap="square" stroke-dasharray="2,4" fill-rule="nonzero"></path>
                    <path d="M135.386719,109.862772 L135.386719,139.658936" id="Line-2-Copy-3" stroke="#C7CFDA" stroke-linecap="square" stroke-dasharray="2,4" fill-rule="nonzero"></path>
                    <path d="M245.074219,57.5502716 L245.074219,87.3464361" id="Line-2-Copy-4" stroke="#C7CFDA" stroke-linecap="square" stroke-dasharray="2,4" fill-rule="nonzero"></path>
                    <path d="M112.682812,156.720012 L134.957813,145.5888" id="Line-2" stroke="#C7CFDA" stroke-linecap="square" stroke-dasharray="2,4" fill-rule="nonzero"></path>
                    <path d="M2.1515625,101.032512 L24.4265625,89.9013005" id="Line-2-Copy-2" stroke="#C7CFDA" stroke-linecap="square" stroke-dasharray="2,4" fill-rule="nonzero"></path>
                    <path d="M112.682812,294.251262 L134.957813,283.12005" id="Line-2-Copy" stroke="#C7CFDA" stroke-linecap="square" stroke-dasharray="2,4" fill-rule="nonzero"></path>
                    <path d="M246.839063,239.407512 L269.114063,228.2763" id="Line-2" stroke="#C7CFDA" stroke-linecap="square" stroke-dasharray="2,4" fill-rule="nonzero" transform="translate(257.976562, 233.841906) scale(1, -1) translate(-257.976562, -233.841906) "></path>
                    <path d="M137.151563,294.251262 L159.426562,283.12005" id="Line-2-Copy-2" stroke="#C7CFDA" stroke-linecap="square" stroke-dasharray="2,4" fill-rule="nonzero" transform="translate(148.289062, 288.685656) scale(1, -1) translate(-148.289062, -288.685656) "></path>
                    <path d="M245.995313,101.032512 L268.270313,89.9013005" id="Line-2-Copy" stroke="#C7CFDA" stroke-linecap="square" stroke-dasharray="2,4" fill-rule="nonzero" transform="translate(257.132812, 95.466906) scale(1, -1) translate(-257.132812, -95.466906) "></path>
                    <path d="M137.151563,156.720012 L159.426562,145.5888" id="Line-2-Copy-5" stroke="#C7CFDA" stroke-linecap="square" stroke-dasharray="2,4" fill-rule="nonzero" transform="translate(148.289062, 151.154406) scale(1, -1) translate(-148.289062, -151.154406) "></path>
                    <path d="M269.4875,157.434092 L160.96875,102.811441 L160.96875,239.506902 L269.4875,294.129552 L269.4875,157.434092 Z" id="Rectangle-3-Copy-4" stroke="#338CD6" transform="translate(215.228125, 198.470497) scale(1, -1) translate(-215.228125, -198.470497) "></path>
                    <path d="M134.915625,0.558953879 L25.5872893,55.1922554 L134.915625,109.825557 L244.243961,55.1922554 L134.915625,0.558953879 Z" id="Rectangle-3-Copy-3" stroke="#338CD6"></path>
                </g>
            </g>
        </g>
    </g>
</svg>
